<?xml version="1.0" encoding="UTF-8" standalone="no"?>
<!-- Generator: Adobe Illustrator 15.0.0, SVG Export Plug-In  -->

<svg
   xmlns:dc="http://purl.org/dc/elements/1.1/"
   xmlns:cc="http://creativecommons.org/ns#"
   xmlns:rdf="http://www.w3.org/1999/02/22-rdf-syntax-ns#"
   xmlns:svg="http://www.w3.org/2000/svg"
   xmlns="http://www.w3.org/2000/svg"
   xmlns:sodipodi="http://sodipodi.sourceforge.net/DTD/sodipodi-0.dtd"
   xmlns:inkscape="http://www.inkscape.org/namespaces/inkscape"
   version="1.1"
   x="0px"
   y="0px"
   width="227px"
   height="113px"
   viewBox="-3.424 -2.099 227 113"
   enable-background="new -3.424 -2.099 227 113"
   xml:space="preserve"
   id="svg2"
   inkscape:version="0.48.0 r9654"
   sodipodi:docname="CodaxyLogo.svg"><metadata
   id="metadata22"><rdf:RDF><cc:Work
       rdf:about=""><dc:format>image/svg+xml</dc:format><dc:type
         rdf:resource="http://purl.org/dc/dcmitype/StillImage" /><dc:title></dc:title></cc:Work></rdf:RDF></metadata><sodipodi:namedview
   pagecolor="#ffffff"
   bordercolor="#666666"
   borderopacity="1"
   objecttolerance="10"
   gridtolerance="10"
   guidetolerance="10"
   inkscape:pageopacity="0"
   inkscape:pageshadow="2"
   inkscape:window-width="705"
   inkscape:window-height="753"
   id="namedview20"
   showgrid="false"
   inkscape:zoom="2.1145374"
   inkscape:cx="113.5"
   inkscape:cy="56.5"
   inkscape:window-x="216"
   inkscape:window-y="57"
   inkscape:window-maximized="0"
   inkscape:current-layer="svg2" />
<defs
   id="defs4">
</defs>
<path
   fill="#006595"
   d="M26.352,42.857c0,0.741-0.068,1.632-0.202,2.675c-0.136,1.044-0.404,2.17-0.807,3.381  c-0.808-0.335-1.801-0.639-2.979-0.908c-1.179-0.269-2.307-0.404-3.383-0.404c-0.943,0-1.835,0.186-2.675,0.555  c-0.844,0.371-1.601,1.146-2.272,2.322c-0.674,1.179-1.212,2.913-1.616,5.2c-0.404,2.289-0.605,5.352-0.605,9.188  c0,2.896,0.1,5.317,0.302,7.269c0.202,1.953,0.555,3.535,1.061,4.746c0.504,1.211,1.194,2.07,2.07,2.574  c0.874,0.505,1.984,0.758,3.332,0.758c1.076,0,2.221-0.134,3.433-0.405c1.211-0.266,2.221-0.604,3.029-1.008  c0.336,1.279,0.571,2.372,0.707,3.281c0.134,0.907,0.202,1.802,0.202,2.676c0,1.682-1.027,3.013-3.079,3.987  c-2.055,0.974-4.696,1.463-7.926,1.463c-2.625,0-4.882-0.337-6.765-1.008c-1.884-0.672-3.432-1.919-4.645-3.737  c-1.211-1.815-2.104-4.355-2.675-7.621C0.286,74.576,0,70.32,0,65.069c0-6.059,0.538-10.887,1.616-14.489  c1.076-3.6,2.474-6.36,4.189-8.279c1.717-1.918,3.651-3.162,5.807-3.735c2.153-0.571,4.273-0.858,6.359-0.858  c2.491,0,4.51,0.455,6.059,1.364C25.578,39.979,26.352,41.242,26.352,42.857z"
   id="path6" />
<path
   fill="#006595"
   d="M29.785,63.857c0-9.154,1.447-15.801,4.341-19.94c2.894-4.139,7.034-6.209,12.419-6.209  c2.691,0,5.031,0.388,7.016,1.162c1.984,0.774,3.618,2.137,4.897,4.088c1.278,1.953,2.237,4.579,2.877,7.876  c0.64,3.298,0.96,7.506,0.96,12.62c0,4.847-0.354,8.97-1.061,12.369c-0.707,3.398-1.751,6.159-3.13,8.278  c-1.38,2.121-3.114,3.67-5.199,4.645c-2.086,0.974-4.477,1.463-7.168,1.463c-2.761,0-5.133-0.318-7.118-0.958  c-1.985-0.639-3.634-1.884-4.947-3.737c-1.313-1.85-2.289-4.506-2.928-7.974C30.104,74.073,29.785,69.512,29.785,63.857z   M42.204,63.757c0,3.971,0.083,7.085,0.251,9.34c0.168,2.254,0.405,3.955,0.707,5.098c0.303,1.146,0.707,1.868,1.212,2.171  c0.504,0.303,1.059,0.455,1.665,0.455c0.47,0,0.942-0.152,1.415-0.455c0.47-0.303,0.873-1.044,1.211-2.222  c0.335-1.177,0.622-2.894,0.858-5.148c0.235-2.254,0.353-5.334,0.353-9.238c0-3.635-0.05-6.528-0.15-8.685  c-0.101-2.152-0.303-3.8-0.607-4.945c-0.302-1.144-0.69-1.884-1.161-2.221c-0.472-0.337-1.078-0.505-1.817-0.505  c-0.539,0-1.06,0.187-1.565,0.556c-0.504,0.371-0.926,1.127-1.261,2.272c-0.338,1.146-0.605,2.793-0.808,4.945  C42.304,57.329,42.204,60.189,42.204,63.757z"
   id="path8" />
<path
   fill="#006595"
   d="M88.344,19.938c0-1.211,0.151-2.153,0.454-2.827c0.303-0.672,0.859-1.162,1.667-1.464  c0.808-0.303,1.951-0.488,3.433-0.556c1.479-0.066,3.397-0.102,5.755-0.102v72.19c-1.751,0.741-3.822,1.432-6.21,2.07  c-2.39,0.64-5.235,0.958-8.531,0.958c-2.155,0-4.208-0.235-6.159-0.705c-1.952-0.471-3.685-1.549-5.2-3.231  c-1.515-1.682-2.726-4.088-3.635-7.218c-0.909-3.131-1.362-7.387-1.362-12.773c0-5.182,0.353-9.591,1.061-13.226  c0.706-3.635,1.681-6.579,2.927-8.834c1.245-2.254,2.709-3.903,4.392-4.948c1.681-1.042,3.499-1.564,5.452-1.564  c1.346,0,2.524,0.168,3.534,0.505c1.01,0.337,1.816,0.774,2.423,1.313V19.938z M88.344,47.905c-0.54-0.337-1.247-0.505-2.121-0.505  c-0.539,0-1.094,0.136-1.666,0.404c-0.573,0.27-1.094,0.977-1.564,2.12c-0.472,1.146-0.875,2.877-1.212,5.201  c-0.337,2.321-0.504,5.57-0.504,9.742c0,3.028,0.067,5.52,0.202,7.471c0.133,1.953,0.353,3.518,0.656,4.695  c0.302,1.179,0.689,2.003,1.161,2.473c0.47,0.474,1.043,0.708,1.717,0.708c1.346,0,2.457-0.336,3.332-1.009V47.905z"
   id="path10" />
<path
   fill="#A7A9AC"
   d="M108.708,43.699c0-0.533,0.083-1.05,0.251-1.55c0.166-0.5,0.449-0.915,0.849-1.25  c0.865-0.533,2.665-1.116,5.398-1.75c2.733-0.633,6.002-0.95,9.801-0.95c4.333,0,7.483,0.9,9.451,2.7c1.966,1.8,2.95,4.967,2.95,9.5  v5.3c0,2.866,0,5.75,0,8.649s-0.034,5.7-0.102,8.399c-0.066,2.701-0.134,5.252-0.2,7.652c-0.066,2.399-0.166,4.532-0.299,6.399  c-1.335,0.8-3.166,1.566-5.5,2.301c-2.335,0.731-5.134,1.1-8.399,1.1c-1.802,0-3.568-0.135-5.302-0.4  c-1.732-0.267-3.266-0.934-4.601-2c-1.332-1.065-2.397-2.616-3.198-4.65c-0.799-2.032-1.2-4.749-1.2-8.15  c0-3.466,0.383-6.266,1.152-8.399c0.764-2.133,1.763-3.802,3-5c1.229-1.202,2.646-2,4.249-2.4c1.599-0.4,3.23-0.601,4.898-0.601  c1.133,0,2.382,0.085,3.751,0.25c1.364,0.168,2.55,0.519,3.549,1.05v-7.899c0-2.333-0.534-3.9-1.6-4.7c-1.068-0.8-2.601-1.2-4.6-1.2  c-2.533,0-5.001,0.217-7.401,0.65c-2.398,0.435-4.333,0.951-5.799,1.55c-0.467-0.799-0.767-1.615-0.899-2.449  C108.774,45.016,108.708,44.299,108.708,43.699z M129.208,65.599c-0.668-0.331-1.434-0.566-2.3-0.699  c-0.867-0.134-1.668-0.2-2.4-0.2c-1,0-1.95,0.117-2.85,0.35c-0.9,0.234-1.686,0.718-2.351,1.45  c-0.666,0.735-1.198,1.751-1.599,3.051c-0.4,1.301-0.601,3.05-0.601,5.25c0,1.799,0.149,3.267,0.45,4.398  c0.299,1.135,0.732,2.019,1.301,2.651c0.564,0.635,1.25,1.049,2.048,1.249c0.801,0.201,1.701,0.302,2.701,0.302  c1.133,0,2.183-0.166,3.151-0.502c0.964-0.331,1.682-0.731,2.148-1.198c0.065-0.801,0.115-1.851,0.149-3.15  c0.033-1.3,0.067-2.683,0.102-4.151c0.032-1.464,0.049-2.964,0.049-4.499C129.208,68.367,129.208,66.934,129.208,65.599z"
   id="path12" />
<path
   fill="#A7A9AC"
   d="M168.608,62.6l13.301,24.699c0.2,0.536,0.315,0.918,0.35,1.15c0.033,0.234-0.234,0.417-0.801,0.551  c-0.566,0.135-1.517,0.2-2.849,0.2c-1.334,0-3.235,0-5.703,0l-3.697-6.502c-0.601-1.065-1.201-2.214-1.801-3.448  s-1.2-2.451-1.801-3.65c-0.6-1.201-1.15-2.349-1.649-3.449c-0.499-1.1-0.919-2.051-1.25-2.851c-0.334,0.8-0.75,1.751-1.249,2.851  c-0.502,1.101-1.018,2.248-1.551,3.449c-0.534,1.199-1.101,2.416-1.701,3.65c-0.599,1.234-1.198,2.383-1.799,3.448l-2.801,4.901  c-0.2,0.4-0.433,0.717-0.7,0.951c-0.267,0.231-0.733,0.398-1.398,0.499c-0.668,0.099-1.567,0.15-2.702,0.15  c-1.134,0-2.632,0-4.499,0l14.1-26.101l-12.1-22.601c-0.2-0.333-0.285-0.583-0.251-0.75c0.035-0.166,0.316-0.299,0.852-0.399  c0.532-0.1,1.416-0.15,2.649-0.15c1.232,0,2.984,0,5.251,0l3.699,6.8c0.466,0.935,0.965,1.95,1.501,3.05  c0.531,1.1,1.031,2.167,1.498,3.2c0.467,1.035,0.902,2,1.301,2.9c0.4,0.9,0.734,1.65,1,2.25c0.266-0.601,0.601-1.332,1-2.201  c0.4-0.865,0.851-1.833,1.351-2.899c0.499-1.065,1.015-2.133,1.551-3.199c0.531-1.066,1.065-2.102,1.599-3.101l3.001-5.399  c0.2-0.333,0.382-0.6,0.55-0.8c0.166-0.2,0.532-0.35,1.1-0.45c0.566-0.1,1.416-0.15,2.551-0.15c1.133,0,2.766,0,4.899,0  L168.608,62.6z"
   id="path14" />
<path
   fill="#A7A9AC"
   d="M187.609,41.398c-0.134-0.533-0.2-0.949-0.2-1.25c0-0.3,0.25-0.515,0.749-0.649  c0.501-0.133,1.317-0.215,2.452-0.25c1.132-0.033,2.763-0.05,4.899-0.05l5.399,23.799c0.401,1.869,0.751,3.767,1.05,5.7  c0.299,1.935,0.566,3.734,0.802,5.4c0.231,1.669,0.414,3.1,0.549,4.302c0.132,1.198,0.233,1.967,0.299,2.299  c0-0.2,0.067-0.881,0.2-2.051c0.135-1.165,0.301-2.581,0.501-4.25c0.199-1.664,0.45-3.514,0.749-5.548  c0.302-2.034,0.617-4.017,0.95-5.951l4.4-21.3c0.067-0.6,0.185-1.066,0.35-1.401c0.166-0.332,0.534-0.565,1.101-0.699  c0.566-0.133,1.414-0.215,2.549-0.25c1.135-0.033,2.734-0.05,4.801-0.05l-12.3,52.701c-0.734,3.2-1.534,5.851-2.4,7.95  c-0.867,2.101-1.85,3.801-2.95,5.1c-1.1,1.3-2.367,2.216-3.799,2.751c-1.436,0.532-3.052,0.799-4.851,0.799  c-3.001,0-5.1-0.365-6.302-1.1c-1.198-0.733-1.799-1.666-1.799-2.801c0-0.733,0.102-1.549,0.302-2.448  c0.198-0.9,0.499-1.617,0.899-2.151c0.665,0.467,1.6,0.851,2.798,1.15c1.202,0.299,2.366,0.451,3.5,0.451  c1.535,0,2.951-0.769,4.25-2.302c1.301-1.534,2.317-4.367,3.052-8.5L187.609,41.398z"
   id="path16" />
<line
   fill="#010101"
   stroke="#010101"
   stroke-width="0.5"
   x1="103.491"
   y1="0"
   x2="103.491"
   y2="107.388"
   id="line18" />
</svg>